<svg xmlns="http://www.w3.org/2000/svg" viewBox="0 0 256 256" role="img" aria-labelledby="title desc">
  <title id="title">Four-Color Flow Network</title>
  <desc id="desc">A circular network mark split into four randomly colored sections.</desc>
  <defs>
    <clipPath id="circleClip">
      <circle cx="128" cy="128" r="96"/>
    </clipPath>
    <mask id="flowCuts" maskUnits="userSpaceOnUse" x="24" y="24" width="208" height="208">
      <rect x="24" y="24" width="208" height="208" fill="#fff"/>
      <path d="M151 19C128 36 124 56 124 84v55c0 29-10 46-31 59-15 9-23 20-26 39" fill="none" stroke="#000" stroke-width="12" stroke-linecap="round"/>
      <path d="M25 174c38-12 65-28 89-49 31-27 62-39 117-40" fill="none" stroke="#000" stroke-width="12" stroke-linecap="round"/>
    </mask>
  </defs>

  <g clip-path="url(#circleClip)" mask="url(#flowCuts)">
    <!-- Top left -->
    <path d="M137 24H24v152c39-13 71-31 98-57 2-13 2-24 2-35 0-28 4-45 13-60Z" fill="#FF5A7A"/>

    <!-- Top right -->
    <path d="M137 24c-9 15-13 32-13 60 0 11 0 22-2 35 29-23 61-34 110-35V24Z" fill="#7B61FF"/>

    <!-- Bottom left -->
    <path d="M24 176v64h53c3-17 11-29 25-38 17-11 21-25 22-59v-24c-27 26-60 44-100 57Z" fill="#18C99A"/>

    <!-- Bottom right -->
    <path d="M122 119c29-23 61-34 110-35v156H77c3-17 11-29 25-38 17-11 21-25 22-59 1-9 0-17-2-24Z" fill="#FFB83E"/>
  </g>
</svg>
